<svg width="24" height="24" viewBox="0 0 24 24" fill="none" xmlns="http://www.w3.org/2000/svg">
<path d="M9 10C10.1046 10 11 9.10457 11 8C11 6.89543 10.1046 6 9 6C7.89543 6 7 6.89543 7 8C7 9.10457 7.89543 10 9 10Z" stroke="#E2F7FA" stroke-width="1.5" stroke-linecap="round" stroke-linejoin="round"/>
<path d="M12 2H9C4 2 2 4 2 9V15C2 20 4 22 9 22H15C20 22 22 20 22 15V11" stroke="#E2F7FA" stroke-width="1.5" stroke-linecap="round" stroke-linejoin="round"/>
<path d="M16.12 5.11002C15.79 4.07002 16.18 2.78002 17.26 2.43002C17.83 2.25002 18.54 2.40002 18.94 2.95002C19.32 2.38002 20.05 2.24002 20.62 2.43002C21.71 2.78002 22.1 4.07002 21.77 5.11002C21.25 6.75002 19.45 7.61002 18.95 7.61002C18.44 7.61002 16.65 6.77002 16.12 5.11002Z" stroke="#E2F7FA" stroke-width="1.5" stroke-linecap="round" stroke-linejoin="round"/>
<path d="M2.67004 18.9501L7.60004 15.6401C8.39004 15.1101 9.53004 15.1701 10.24 15.7801L10.57 16.0701C11.35 16.7401 12.61 16.7401 13.39 16.0701L17.55 12.5001C18.33 11.8301 19.59 11.8301 20.37 12.5001L22 13.9001" stroke="#E2F7FA" stroke-width="1.5" stroke-linecap="round" stroke-linejoin="round"/>
</svg>
