<svg width="39" height="34" viewBox="0 0 39 34" fill="none" xmlns="http://www.w3.org/2000/svg">
<path d="M38.2762 2.91248C38.2761 2.60359 38.1963 2.30023 38.0447 2.0332C37.8932 1.76617 37.6753 1.54498 37.4133 1.39212C37.1513 1.23925 36.8544 1.16015 36.5529 1.16285C36.2514 1.16554 35.956 1.24995 35.6966 1.40748C34.6962 2.0179 33.6191 2.48539 32.4952 2.79698C30.891 1.38696 28.845 0.615443 26.7313 0.623475C24.4126 0.626322 22.1858 1.55208 20.5209 3.20529C18.8561 4.85849 17.8835 7.10975 17.8086 9.48373C13.2368 8.73704 9.09319 6.29265 6.16805 2.61673C5.9918 2.39792 5.76682 2.2257 5.51204 2.11454C5.25726 2.00338 4.98014 1.95655 4.70401 1.97798C4.42794 2.00138 4.16159 2.09328 3.92794 2.24572C3.6943 2.39817 3.50039 2.60659 3.36297 2.85298C2.65832 4.1128 2.25365 5.5251 2.18182 6.9752C2.10998 8.42529 2.37302 9.87231 2.94955 11.1987L2.94614 11.2005C2.68644 11.3639 2.47212 11.593 2.32374 11.8658C2.17537 12.1385 2.09791 12.4457 2.0988 12.758C2.09606 13.0149 2.11148 13.2716 2.14493 13.5262C2.31939 15.7278 3.2718 17.7886 4.82359 19.3222C4.71829 19.5279 4.65408 19.753 4.63472 19.9843C4.61536 20.2157 4.64124 20.4487 4.71084 20.6697C5.38731 22.8295 6.8262 24.653 8.74593 25.7832C6.7953 26.5557 4.68915 26.825 2.61301 26.5672C2.22893 26.5183 1.84001 26.6044 1.50995 26.8115C1.1799 27.0186 0.928263 27.3343 0.796266 27.707C0.664269 28.0797 0.659732 28.4873 0.783399 28.863C0.907066 29.2387 1.15161 29.5602 1.47697 29.775C5.04774 32.1305 9.20526 33.3827 13.4524 33.3817C18.2686 33.4373 22.9677 31.8608 26.8188 28.8975C30.6699 25.9342 33.4571 21.7503 34.7468 16.9965C35.3497 14.9258 35.6576 12.7768 35.6607 10.616L35.659 10.266C36.551 9.28038 37.242 8.12228 37.6914 6.85956C38.1408 5.59684 38.3396 4.25492 38.2762 2.91248ZM32.6284 8.53348C32.346 8.8751 32.2028 9.31506 32.2287 9.76198C32.2458 10.0507 32.2441 10.3412 32.2441 10.616C32.2404 12.4415 31.9792 14.257 31.4685 16.006C30.4156 20.0513 28.0679 23.6176 24.8013 26.1338C21.5348 28.6499 17.5385 29.9703 13.4524 29.8835C11.9852 29.8837 10.523 29.7069 9.09614 29.3567C10.916 28.7555 12.6176 27.8289 14.1221 26.6197C14.3995 26.3963 14.6025 26.0904 14.7033 25.7439C14.8041 25.3975 14.7978 25.0276 14.685 24.685C14.5723 24.3425 14.3588 24.0441 14.0739 23.8309C13.7889 23.6176 13.4465 23.5 13.0936 23.4942C11.6735 23.4715 10.3175 22.8848 9.31139 21.858C9.5665 21.809 9.8199 21.7477 10.0716 21.6742C10.4406 21.5668 10.7636 21.3352 10.9885 21.0167C11.2134 20.6983 11.3271 20.3116 11.3114 19.9189C11.2956 19.5262 11.1512 19.1504 10.9015 18.852C10.6518 18.5536 10.3113 18.35 9.93493 18.274C9.11064 18.1072 8.33502 17.7479 7.66836 17.224C7.00171 16.7001 6.46199 16.0258 6.09118 15.2535C6.39997 15.2967 6.71073 15.3236 7.02222 15.334C7.39239 15.3402 7.75487 15.2255 8.05712 15.0065C8.35937 14.7875 8.58567 14.4756 8.70322 14.116C8.81606 13.7533 8.81039 13.3629 8.68708 13.0038C8.56376 12.6447 8.32953 12.3366 8.01989 12.1262C7.26811 11.6136 6.65221 10.9179 6.22735 10.1016C5.8025 9.28518 5.58197 8.3736 5.58551 7.44847C5.58551 7.33297 5.58893 7.21572 5.59576 7.10197C9.42493 10.7606 14.3918 12.9173 19.6212 13.192C19.8852 13.2022 20.1481 13.1509 20.3899 13.0417C20.6317 12.9326 20.8461 12.7685 21.0169 12.562C21.1861 12.3542 21.3059 12.109 21.3669 11.8457C21.428 11.5825 21.4286 11.3083 21.3688 11.0447C21.271 10.6268 21.2211 10.1987 21.2202 9.76898C21.222 8.27226 21.8032 6.83739 22.8363 5.77905C23.8695 4.72071 25.2702 4.12533 26.7313 4.12348C27.4832 4.1212 28.2274 4.27865 28.9169 4.58588C29.6064 4.89312 30.2263 5.34346 30.7373 5.90848C30.9343 6.12569 31.1824 6.28764 31.4578 6.37892C31.7332 6.4702 32.0268 6.48778 32.3107 6.42998C33.0125 6.29023 33.7042 6.10197 34.3812 5.86648C33.9196 6.83392 33.3298 7.7314 32.6284 8.53348Z" fill="#000000"/>
</svg>
