<svg width="36" height="36" viewBox="0 0 36 36" fill="none" xmlns="http://www.w3.org/2000/svg">
<path d="M26.05 21.5C25.7 21.325 23.425 20.275 23.075 20.1C22.725 19.925 22.375 19.925 22.025 20.275C21.675 20.625 20.975 21.675 20.625 22.025C20.45 22.375 20.1 22.375 19.75 22.2C18.525 21.675 17.3 20.975 16.25 20.1C15.375 19.225 14.5 18.175 13.8 17.125C13.625 16.775 13.8 16.425 13.975 16.25C14.15 16.075 14.325 15.725 14.675 15.55C14.85 15.375 15.025 15.025 15.025 14.85C15.2 14.675 15.2 14.325 15.025 14.15C14.85 13.975 13.975 11.875 13.625 11C13.45 9.77505 13.1 9.77505 12.75 9.77505H11.875C11.525 9.77505 11 10.125 10.825 10.3C9.775 11.35 9.25 12.575 9.25 13.975C9.425 15.55 9.95 17.125 11 18.525C12.925 21.325 15.375 23.6 18.35 25C19.225 25.35 19.925 25.7 20.8 25.875C21.675 26.225 22.55 26.225 23.6 26.05C24.825 25.875 25.875 25 26.575 23.95C26.925 23.25 26.925 22.55 26.75 21.85L26.05 21.5ZM30.425 5.57505C23.6 -1.24995 12.575 -1.24995 5.75 5.57505C0.15 11.175 -0.9 19.75 2.95 26.575L0.5 35.5L9.775 33.05C12.4 34.45 15.2 35.15 18 35.15C27.625 35.15 35.325 27.45 35.325 17.825C35.5 13.275 33.575 8.90005 30.425 5.57505ZM25.7 30.075C23.425 31.475 20.8 32.35 18 32.35C15.375 32.35 12.925 31.65 10.65 30.425L10.125 30.075L4.7 31.475L6.1 26.225L5.75 25.7C1.55 18.7 3.65 9.95005 10.475 5.57505C17.3 1.20005 26.05 3.47505 30.25 10.125C34.45 16.95 32.525 25.875 25.7 30.075Z" fill="#000000"/>
</svg>
